<?xml version="1.0" encoding="UTF-8" standalone="no"?>
<!-- Created with Inkscape (http://www.inkscape.org/) -->

<svg
   width="210mm"
   height="297mm"
   viewBox="0 2.5 210 297"
   version="1.1"
   id="svg1"
   xml:space="preserve"
   inkscape:version="1.3.2 (091e20e, 2023-11-25, custom)"
   xmlns:inkscape="http://www.inkscape.org/namespaces/inkscape"
   xmlns:sodipodi="http://sodipodi.sourceforge.net/DTD/sodipodi-0.dtd"
   xmlns="http://www.w3.org/2000/svg"
   xmlns:svg="http://www.w3.org/2000/svg"><sodipodi:namedview
     id="namedview1"
     pagecolor="#ffffff"
     bordercolor="#000000"
     borderopacity="0.25"
     inkscape:showpageshadow="2"
     inkscape:pageopacity="0.0"
     inkscape:pagecheckerboard="0"
     inkscape:deskcolor="#d1d1d1"
     inkscape:document-units="mm"
     inkscape:zoom="0.69219276"
     inkscape:cx="396.56583"
     inkscape:cy="561.25984"
     inkscape:window-width="1920"
     inkscape:window-height="991"
     inkscape:window-x="-9"
     inkscape:window-y="-9"
     inkscape:window-maximized="1"
     inkscape:current-layer="layer1" /><defs
     id="defs1"><clipPath
       clipPathUnits="userSpaceOnUse"
       id="clipPath3"><g
         id="g4"><g
           inkscape:label="Clip"
           id="use3"
           clip-path="url(#clipPath3)"><path
             style="fill:#000000"
             d="m 96.549593,252.71833 c -9.99219,-0.51843 -20.49632,-3.08239 -30.37443,-7.4141 -18.72012,-8.2091 -34.34372,-22.855 -43.8597,-41.11501 -4.90871,-9.41923 -8.03426,-19.49168 -9.52594,-30.69844 -0.56681,-4.25829 -0.65392,-16.59327 -0.14575,-20.6375 3.0465,-24.2455 13.93288,-44.35074 32.45583,-59.940231 19.46382,-16.38134 46.4991,-23.660348 72.098967,-19.41199 15.67672,2.60159 29.24264,8.71253 42.33333,19.06958 3.30209,2.61253 11.16093,10.612041 13.84994,14.097831 10.84592,14.05968 17.02729,29.22962 18.98088,46.58168 0.4194,3.72515 0.42224,15.00336 0.005,18.78542 -0.45916,4.15941 -1.45341,9.50546 -2.53414,13.62604 -9.88523,37.69021 -43.35594,65.03352 -82.10123,67.07116 -5.35942,0.28186 -5.47447,0.28171 -11.182477,-0.0144 z m 13.851947,-55.26029 c 4.33155,-0.98022 8.43393,-2.77044 12.35117,-5.38987 2.55466,-1.70828 7.47918,-6.63314 9.18809,-9.18872 2.96331,-4.43145 4.99883,-9.56221 5.79972,-14.61878 0.63145,-3.98681 0.38357,-10.49984 -0.53903,-14.16295 -3.4762,-13.80202 -14.64934,-24.26227 -28.47994,-26.66282 -3.54034,-0.6145 -11.345307,-0.40496 -14.541737,0.39038 -6.42433,1.59853 -12.43983,4.98881 -16.93333,9.54348 -5.34669,5.41948 -8.71179,11.95202 -9.92978,19.27631 -0.67137,4.03721 -0.43452,10.80053 0.50928,14.54293 1.6163,6.40894 4.66273,11.82787 9.3268,16.59028 5.15788,5.26663 11.57763,8.61011 19.27599,10.03915 3.21302,0.59642 10.587217,0.40676 13.972767,-0.35939 z M 57.622683,69.178802 c 26.533,-0.03717 69.871747,-0.03717 96.308327,10e-7 26.43658,0.03717 4.72776,0.06757 -48.24182,0.06757 -52.969587,-1e-6 -74.599517,-0.03041 -48.066507,-0.06758 z"
             id="path4" /></g></g></clipPath></defs><g
     inkscape:label="Layer 1"
     inkscape:groupmode="layer"
     id="layer1"><path
       style="fill:#ffffff"
       d="m 98.019723,241.54528 c -2.11636,-0.1098 -5.15245,-0.39924 -6.74687,-0.64319 -1.59442,-0.24395 -4.08957,-0.68156 -5.54478,-0.97247 -1.45521,-0.29091 -4.07459,-0.92864 -5.82084,-1.4172 -1.74625,-0.48855 -4.40909,-1.31879 -5.91744,-1.84498 -1.508339,-0.52618 -4.363366,-1.6675 -6.344499,-2.53626 -1.981134,-0.86877 -4.972064,-2.32079 -6.646511,-3.22672 -1.674447,-0.90593 -4.772546,-2.79697 -6.884664,-4.20231 -2.112117,-1.40534 -5.149901,-3.59982 -6.75063,-4.87663 -1.600729,-1.27682 -4.326046,-3.69887 -6.056259,-5.38235 -1.730214,-1.68347 -4.178471,-4.25757 -5.440572,-5.7202 -1.262101,-1.46264 -3.194736,-3.84777 -4.294745,-5.3003 -1.100008,-1.45252 -2.92885,-4.1223 -4.064093,-5.93283 -1.135243,-1.81054 -2.810243,-4.72369 -3.722222,-6.47367 -0.91198,-1.74998 -2.094146,-4.19381 -2.627037,-5.43074 -0.532892,-1.23693 -1.386092,-3.38005 -1.896001,-4.7625 -0.509909,-1.38245 -1.383793,-4.01891 -1.941965,-5.85881 -0.558171,-1.83989 -1.372215,-5.11411 -1.808987,-7.27604 -0.436771,-2.16192 -1.000152,-5.47859 -1.251957,-7.37036 -0.336435,-2.52758 -0.460529,-5.36881 -0.468015,-10.71562 -0.0061,-4.32611 0.1246,-8.34875 0.322267,-9.92188 0.18285,-1.45521 0.625038,-4.2709 0.982639,-6.2571 0.357601,-1.9862 1.001531,-4.96277 1.430955,-6.61459 0.429425,-1.65182 1.329824,-4.60491 2.000888,-6.56243 0.671064,-1.95752 1.703295,-4.69596 2.293848,-6.08542 0.590552,-1.38946 1.649501,-3.67508 2.35322,-5.07916 0.703719,-1.40408 1.899607,-3.60673 2.65753,-4.89479 0.757922,-1.28806 2.177214,-3.53255 3.153982,-4.98775 0.976767,-1.455206 2.660656,-3.803646 3.741975,-5.218746 1.081319,-1.41511 3.203697,-3.91542 4.716395,-5.55625 1.512699,-1.64084 3.70827,-3.86516 4.879049,-4.94293 1.170779,-1.07778 3.081188,-2.76125 4.245355,-3.74105 1.164167,-0.9798 3.485885,-2.75826 5.159375,-3.95214 1.673489,-1.19388 4.321385,-2.93184 5.884212,-3.86213 1.562828,-0.93029 4.122671,-2.33329 5.688542,-3.11777 1.56587,-0.78448 4.037662,-1.93373 5.49287,-2.55388 1.455209,-0.62014 3.955521,-1.59629 5.556245,-2.1692 1.60073,-0.57292 4.69636,-1.50269 6.87917,-2.06616 2.18281,-0.56347 5.81422,-1.32752 8.06979,-1.69789 2.25558,-0.37037 5.70839,-0.793 7.67292,-0.93917 1.96453,-0.14618 5.119687,-0.26578 7.011457,-0.26578 1.89177,0 5.04692,0.1196 7.01145,0.26578 1.96454,0.14617 5.41735,0.57203 7.67292,0.94635 2.25557,0.37431 5.88698,1.13768 8.06979,1.69636 2.18281,0.55869 5.29395,1.49311 6.91363,2.07649 1.61968,0.58339 4.11999,1.56022 5.55625,2.17073 1.43625,0.61052 3.92106,1.76602 5.52179,2.56778 1.60073,0.80176 4.10104,2.17386 5.55625,3.04911 1.45521,0.87525 3.95552,2.52251 5.55625,3.66057 1.60073,1.13807 3.92245,2.86991 5.15937,3.84853 1.23693,0.97863 4.33367,3.86976 6.88164,6.42474 2.54798,2.55497 5.68371,6.00787 6.96831,7.6731 1.28459,1.66523 3.32946,4.522726 4.54414,6.349996 1.21469,1.82727 3.05071,4.87012 4.08004,6.76189 1.02933,1.89177 2.57691,5.10645 3.43906,7.14375 0.86215,2.03729 2.04482,5.0959 2.62815,6.79692 0.58334,1.70102 1.48202,4.76954 1.99708,6.81893 0.51506,2.04939 1.17118,5.1225 1.45805,6.82912 0.28687,1.70662 0.66233,4.3531 0.83436,5.88107 0.17202,1.52797 0.31904,5.69515 0.32669,9.26041 0.008,3.57073 -0.13695,7.84895 -0.32197,9.525 -0.18474,1.67349 -0.62752,4.65006 -0.98396,6.61459 -0.35644,1.96453 -1.05402,5.11969 -1.55019,7.01146 -0.49616,1.89177 -1.38176,4.8272 -1.96799,6.52318 -0.58622,1.69598 -1.67047,4.49395 -2.40943,6.21771 -0.73897,1.72376 -2.06785,4.50333 -2.95309,6.17682 -0.88523,1.67348 -2.50789,4.46158 -3.60589,6.19575 -1.09801,1.73418 -2.85371,4.30503 -3.90155,5.71299 -1.04784,1.40796 -2.97613,3.79909 -4.28509,5.31362 -1.30896,1.51452 -3.79403,4.1236 -5.52237,5.79794 -1.72835,1.67435 -4.45213,4.09458 -6.05286,5.37829 -1.60073,1.28372 -4.57729,3.44049 -6.61459,4.79283 -2.03729,1.35234 -5.13291,3.24126 -6.87916,4.1976 -1.74625,0.95633 -4.78362,2.44839 -6.74971,3.31569 -1.96609,0.86729 -4.76405,1.9907 -6.21771,2.49648 -1.45365,0.50577 -4.13128,1.34167 -5.95029,1.85756 -1.81901,0.51589 -4.55745,1.18197 -6.08542,1.48017 -1.52796,0.2982 -3.94242,0.72485 -5.36545,0.94811 -1.42303,0.22326 -4.81631,0.52315 -7.54062,0.66642 -2.72432,0.14328 -5.48908,0.24356 -6.14392,0.22285 -0.65485,-0.0207 -2.9222,-0.12749 -5.038557,-0.23729 z m 13.851947,-55.26029 c 1.42763,-0.32307 3.36481,-0.8769 4.30485,-1.23073 0.94005,-0.35383 2.68807,-1.13551 3.88451,-1.73707 1.19643,-0.60155 3.06925,-1.69149 4.16181,-2.42207 1.09256,-0.73059 3.30767,-2.64954 4.92246,-4.26433 1.61479,-1.61479 3.53432,-3.83077 4.26563,-4.92439 0.7313,-1.09363 1.86618,-3.05816 2.52193,-4.36563 0.65576,-1.30747 1.5659,-3.54555 2.02254,-4.97352 0.45664,-1.42797 1.02149,-3.80381 1.25524,-5.27963 0.32005,-2.0207 0.39069,-3.76436 0.28606,-7.06099 -0.11125,-3.50525 -0.27568,-4.92058 -0.82509,-7.10197 -0.37738,-1.49837 -1.11456,-3.76055 -1.63817,-5.02708 -0.52361,-1.26653 -1.58655,-3.37434 -2.36209,-4.68402 -0.77554,-1.30969 -2.21063,-3.37497 -3.1891,-4.58951 -0.97846,-1.21454 -2.68422,-2.98214 -3.79056,-3.92801 -1.10635,-0.94586 -2.90451,-2.31113 -3.99592,-3.03392 -1.0914,-0.72279 -2.95879,-1.78256 -4.14974,-2.35504 -1.19095,-0.57249 -3.21967,-1.3941 -4.50826,-1.82582 -1.28859,-0.43172 -3.46933,-0.98046 -4.84609,-1.21942 -1.95484,-0.3393 -3.57546,-0.40542 -7.39799,-0.30184 -3.754557,0.10174 -5.418677,0.26299 -7.143747,0.69223 -1.23692,0.30778 -3.20146,0.92905 -4.36562,1.3806 -1.16417,0.45155 -3.06917,1.3343 -4.23334,1.96167 -1.16416,0.62736 -3.00963,1.76638 -4.10104,2.53115 -1.0914,0.76476 -2.9964,2.41629 -4.23333,3.67006 -1.23693,1.25376 -2.9382,3.24641 -3.78062,4.42809 -0.84241,1.18168 -2.123744,3.31146 -2.84741,4.73283 -0.723666,1.42138 -1.660329,3.66378 -2.081473,4.98312 -0.421144,1.31935 -0.970268,3.62886 -1.220277,5.13226 -0.356921,2.14632 -0.424832,3.70919 -0.316163,7.27604 0.112536,3.69374 0.266782,5.05166 0.825449,7.2669 0.377879,1.49837 1.112468,3.76056 1.632421,5.02708 0.519952,1.26653 1.429453,3.13621 2.021112,4.15486 0.591661,1.01865 1.702071,2.68552 2.467581,3.70417 0.76551,1.01864 2.20807,2.68552 3.20568,3.70416 0.99761,1.01865 2.55149,2.41966 3.45307,3.11336 0.90157,0.6937 2.50884,1.76984 3.5717,2.39142 1.06286,0.62158 2.90518,1.56979 4.09404,2.10714 1.18886,0.53735 3.03433,1.2149 4.10104,1.50566 1.06671,0.29076 2.89197,0.70547 4.05614,0.92157 1.50067,0.27857 3.464157,0.36892 6.746867,0.31047 3.60012,-0.0641 5.20768,-0.21313 7.2259,-0.66985 z"
       id="path5" /></g></svg>
