<?xml version="1.0" encoding="UTF-8" standalone="no"?>
<!-- Created with Inkscape (http://www.inkscape.org/) -->

<svg
   width="210mm"
   height="297mm"
   viewBox="0 0 210 300"
   version="1.1"
   id="svg1"
   xml:space="preserve"
   inkscape:version="1.3.2 (091e20e, 2023-11-25, custom)"
   xmlns:inkscape="http://www.inkscape.org/namespaces/inkscape"
   xmlns:sodipodi="http://sodipodi.sourceforge.net/DTD/sodipodi-0.dtd"
   xmlns="http://www.w3.org/2000/svg"
   xmlns:svg="http://www.w3.org/2000/svg"><sodipodi:namedview
     id="namedview1"
     pagecolor="#ffffff"
     bordercolor="#000000"
     borderopacity="0.25"
     inkscape:showpageshadow="2"
     inkscape:pageopacity="0.0"
     inkscape:pagecheckerboard="0"
     inkscape:deskcolor="#d1d1d1"
     inkscape:document-units="mm"
     inkscape:zoom="0.69219276"
     inkscape:cx="396.56583"
     inkscape:cy="561.25984"
     inkscape:window-width="1920"
     inkscape:window-height="991"
     inkscape:window-x="-9"
     inkscape:window-y="-9"
     inkscape:window-maximized="1"
     inkscape:current-layer="layer1" /><defs
     id="defs1" /><g
     inkscape:label="Layer 1"
     inkscape:groupmode="layer"
     id="layer1"><path
       style="fill:#ffffff"
       d="m 50.456306,237.96511 c -3.55964,-0.8616 -3.84193,-1.09938 -17.53904,-14.77382 -11.0591,-11.04079 -12.84948,-12.93791 -13.56233,-14.3709 -1.55248,-3.12082 -1.94486,-6.15633 -1.20275,-9.30465 0.89012,-3.77622 0.25679,-3.07257 24.52958,-27.25296 12.33289,-12.28594 22.42344,-22.52407 22.42344,-22.7514 0,-0.22732 -10.10557,-10.5359 -22.45682,-22.90794 -21.66241,-21.69889 -22.49085,-22.56482 -23.41919,-24.479 -1.90708,-3.932279 -1.89461,-8.076439 0.0361,-11.991809 0.86639,-1.75703 1.88674,-2.85032 13.66469,-14.64172 11.05725,-11.069866 12.94513,-12.850486 14.37931,-13.562326 4.19236,-2.08085 8.39335,-2.07973 12.57314,0.003 1.45772,0.72648 4.28348,3.45162 24.14555,23.285766 12.37204,12.35465 22.667994,22.462999 22.879894,22.462999 0.2119,0 10.62761,-10.222489 23.14601,-22.716639 22.34671,-22.303416 22.79234,-22.728986 24.49859,-23.395266 4.65591,-1.8181 9.06372,-1.42809 12.88466,1.14006 0.84582,0.5685 6.91931,6.441006 13.72653,13.272316 10.51526,10.55246 12.32376,12.48174 13.03316,13.90358 2.08484,4.17858 2.08554,8.38673 0.002,12.573149 -0.72605,1.45891 -3.43443,4.26712 -23.28577,24.14409 -12.35528,12.37124 -22.46415,22.60835 -22.46415,22.74913 0,0.14078 10.10835,10.37854 22.463,22.75059 19.83415,19.86207 22.55928,22.68783 23.28577,24.14555 1.55482,3.11983 1.98029,6.45955 1.20671,9.47213 -0.93571,3.64399 -0.88769,3.5867 -14.24982,17.00217 -6.85577,6.88315 -13.06035,12.90866 -13.78796,13.39003 -3.00009,1.9848 -6.88442,2.70153 -10.29149,1.89896 -3.98654,-0.93906 -3.0687,-0.12133 -27.54896,-24.54421 -12.37204,-12.34304 -22.60981,-22.44189 -22.75059,-22.44189 -0.14079,0 -10.377894,10.09938 -22.749134,22.44307 -24.38032,24.32601 -23.57409,23.60516 -27.41258,24.50995 -2.073,0.48864 -4.10463,0.48457 -6.15761,-0.0123 z"
       id="path1" /></g></svg>
